<?xml version="1.0" encoding="utf-8"?>
<!-- Generated by IcoMoon.io -->
<!DOCTYPE svg PUBLIC "-//W3C//DTD SVG 1.1//EN" "http://www.w3.org/Graphics/SVG/1.1/DTD/svg11.dtd">
<svg version="1.1" xmlns="http://www.w3.org/2000/svg" xmlns:xlink="http://www.w3.org/1999/xlink" width="34" height="32" viewBox="0 0 34 32">
<g>
	<line stroke-width="1" x1="" y1="" x2="" y2="" stroke="#449FDB" opacity=""></line>
</g>
	<path d="M22.857 16.571q0-0.25-0.161-0.411t-0.411-0.161h-4v-6.286q0-0.232-0.17-0.402t-0.402-0.17h-3.429q-0.232 0-0.402 0.17t-0.17 0.402v6.286h-4q-0.232 0-0.402 0.17t-0.17 0.402q0 0.25 0.161 0.411l6.286 6.286q0.161 0.161 0.411 0.161t0.411-0.161l6.268-6.268q0.179-0.214 0.179-0.429zM34.286 20.571q0 2.839-2.009 4.848t-4.848 2.009h-19.429q-3.304 0-5.652-2.348t-2.348-5.652q0-2.321 1.25-4.286t3.357-2.946q-0.036-0.536-0.036-0.768 0-3.786 2.679-6.464t6.464-2.679q2.786 0 5.098 1.554t3.366 4.125q1.268-1.107 2.964-1.107 1.893 0 3.232 1.339t1.339 3.232q0 1.357-0.732 2.464 2.321 0.554 3.813 2.42t1.491 4.259z" fill="#ffffff"></path>
</svg>
